<svg xmlns="http://www.w3.org/2000/svg">
  <symbol id="left" viewBox="0 0 24 24">
    <path style="fill:var(--accent-color);" d="M11.67 3.87L9.9 2.1 0 12l9.9 9.9 1.77-1.77L3.54 12z"/>
    <path fill="none" d="M0 0h24v24H0z"/>
  </symbol>
  <symbol id="right" viewBox="0 0 24 24">
    <path style="fill:var(--background-color);" d="M5.88 4.12L13.76 12l-7.88 7.88L8 22l10-10L8 2z"/>
    <path fill="none" d="M0 0h24v24H0z"/>
  </symbol>
  <symbol id="up" viewBox="0 0 24 24">
    <path style="fill:var(--background-color);" d="M7.41 15.41L12 10.83l4.59 4.58L18 14l-6-6-6 6 1.41 1.41z"/>
    <path fill="none" d="M0 0h24v24H0V0z"/>
  </symbol>
  <symbol id="down" viewBox="0 0 24 24">
    <path style="fill:var(--background-color);" d="M7.41 8.59L12 13.17l4.59-4.58L18 10l-6 6-6-6 1.41-1.41z"/>
    <path fill="none" d="M0 0h24v24H0V0z"/>
  </symbol>
</svg>
