<svg xmlns="http://www.w3.org/2000/svg">
  <symbol id="watching" viewBox="0 0 24 24">
    <path fill="none" d="M0 0h24v24H0V0z"/>
    <path d="M12 6.5c3.79 0 7.17 2.13 8.82 5.5-1.65 3.37-5.02 5.5-8.82 5.5S4.83 15.37 3.18 12C4.83 8.63 8.21 6.5 12 6.5m0-2C7 4.5 2.73 7.61 1 12c1.73 4.39 6 7.5 11 7.5s9.27-3.11 11-7.5c-1.73-4.39-6-7.5-11-7.5zm0 5c1.38 0 2.5 1.12 2.5 2.5s-1.12 2.5-2.5 2.5-2.5-1.12-2.5-2.5 1.12-2.5 2.5-2.5m0-2c-2.48 0-4.5 2.02-4.5 4.5s2.02 4.5 4.5 4.5 4.5-2.02 4.5-4.5-2.02-4.5-4.5-4.5z"/>
  </symbol>
  <symbol id="unseen" viewBox="0 0 24 24">
    <path fill="none" d="M0 0h24v24H0V0z"/>
    <path d="M1 3.54l1.53 1.53C1.65 5.28 1 6.06 1 7v12c0 1.1.9 2 2 2h15.46l2 2 1.26-1.27L2.27 2.27 1 3.54zM3 19V7h1.46l12 12H3zM21 5h-7.58l3.29-3.3L16 1l-4 4-4-4-.7.7L10.58 5H7.52l2 2H21v11.48l1.65 1.65c.22-.32.35-.71.35-1.13V7c0-1.11-.89-2-2-2z"/>
  </symbol>
  <symbol id="done" viewBox="0 0 24 24">
    <path fill="none" d="M0 0h24v24H0V0z"/>
    <path d="M12 2C6.48 2 2 6.48 2 12s4.48 10 10 10 10-4.48 10-10S17.52 2 12 2zm0 18c-4.41 0-8-3.59-8-8s3.59-8 8-8 8 3.59 8 8-3.59 8-8 8zm4.59-12.42L10 14.17l-2.59-2.58L6 13l4 4 8-8z"/>
  </symbol>
  <symbol id="all" viewBox="0 0 24 24">
    <path fill="none" d="M0 0h24v24H0V0z"/>
    <path d="M18 2H6c-1.1 0-2 .9-2 2v16c0 1.1.9 2 2 2h12c1.1 0 2-.9 2-2V4c0-1.1-.9-2-2-2zM9 4h2v5l-1-.75L9 9V4zm9 16H6V4h1v9l3-2.25L13 13V4h5v16z"/>
  </symbol>
</svg>
