<svg version="1.1" xmlns="http://www.w3.org/2000/svg">
  <symbol id="logo" viewBox="0 0 128 128" style="fill-rule:evenodd;clip-rule:evenodd;stroke-linejoin:round;stroke-miterlimit:1.41421;">
    <g id="Ebene1">
        <g transform="matrix(1,0,0,1,1,0)">
            <g transform="matrix(1.80945,0,0,1.25303,-50.1356,-3.52289)">
                <ellipse cx="62.525" cy="15.182" rx="8.29" ry="9.976" style="fill:rgb(146,146,146);"/>
            </g>
            <g transform="matrix(1.2063,0,0,0.751816,-12.4237,4.08627)">
                <ellipse cx="62.525" cy="15.182" rx="8.29" ry="9.976" style="fill:white;"/>
            </g>
        </g>
        <g transform="matrix(1,0,0,1,1,0)">
            <g transform="matrix(1.09929,0,0,1.26693,-8.28119,-9.40681)">
                <path d="M100.321,28.657C100.321,26.958 98.731,25.579 96.773,25.579L32.913,25.579C30.955,25.579 29.366,26.958 29.366,28.657L29.366,103.01C29.366,104.709 30.955,106.088 32.913,106.088L96.773,106.088C98.731,106.088 100.321,104.709 100.321,103.01L100.321,28.657Z" style="fill:rgb(146,146,146);"/>
            </g>
            <g transform="matrix(1,0,0,1.01516,-0.225027,-1.10481)">
                <path d="M97.229,32.019C97.229,30.171 95.706,28.67 93.829,28.67L32.625,28.67C30.749,28.67 29.225,30.171 29.225,32.019L29.225,115.946C29.225,117.795 30.749,119.296 32.625,119.296L93.829,119.296C95.706,119.296 97.229,117.795 97.229,115.946L97.229,32.019Z" style="fill:white;"/>
            </g>
        </g>
        <g transform="matrix(1,0,0,1,1,0)">
            <g transform="matrix(1.04842,0,0,1.19617,-2.90421,-6.01681)">
                <path d="M87.675,21.75C87.675,19.443 85.538,17.57 82.906,17.57L42.846,17.57C40.214,17.57 38.077,19.443 38.077,21.75L38.077,30.11C38.077,32.417 40.214,34.29 42.846,34.29L82.906,34.29C85.538,34.29 87.675,32.417 87.675,30.11L87.675,21.75Z" style="fill:rgb(146,146,146);"/>
            </g>
            <g transform="matrix(0.846804,0,0,0.598083,9.75637,9.4916)">
                <path d="M87.675,21.75C87.675,19.443 86.352,17.57 84.723,17.57L41.029,17.57C39.4,17.57 38.077,19.443 38.077,21.75L38.077,30.11C38.077,32.417 39.4,34.29 41.029,34.29L84.723,34.29C86.352,34.29 87.675,32.417 87.675,30.11L87.675,21.75Z" style="fill:white;"/>
            </g>
        </g>
        <g transform="matrix(0.741374,0,0,0.741374,20.9792,-9.69271)">
            <circle cx="58.029" cy="46.795" r="3.372" style="fill:rgb(146,146,146);"/>
        </g>
        <g id="Logo">
            <path d="M62.049,96.414C53.308,95.442 46.5,88.021 46.5,79.021C46.5,69.363 54.341,61.521 64,61.521C73.659,61.521 81.5,69.363 81.5,79.021C81.5,79.962 81.426,80.885 81.282,81.786C81.157,73.615 74.485,67.021 66.284,67.021C58.006,67.021 51.284,73.742 51.284,82.021C51.284,88.829 55.83,94.584 62.049,96.414Z" style="fill:rgb(245,116,33);"/>
            <path d="M58.327,72.696C60.513,70.823 63.352,69.69 66.454,69.69C73.353,69.69 78.954,75.292 78.954,82.19C78.954,89.089 73.353,94.69 66.454,94.69C59.555,94.69 53.954,89.089 53.954,82.19C53.954,80.271 54.387,78.452 55.162,76.827C54.735,77.907 54.5,79.083 54.5,80.314C54.5,85.558 58.757,89.814 64,89.814C69.243,89.814 73.5,85.558 73.5,80.314C73.5,75.071 69.243,70.814 64,70.814C61.874,70.814 59.91,71.514 58.327,72.696Z" style="fill:rgb(245,116,33);"/>
        </g>
    </g>
  </symbol>
</svg>
