<svg xmlns="http://www.w3.org/2000/svg">
  <symbol id="notification" viewBox="0 0 24 24">
    <path fill="none" d="M0 0h24v24H0V0z"/>
    <path style="fill:var(--accent-color);" d="M12 22c1.1 0 2-.9 2-2h-4c0 1.1.9 2 2 2zm6-6v-5c0-3.07-1.63-5.64-4.5-6.32V4c0-.83-.67-1.5-1.5-1.5s-1.5.67-1.5 1.5v.68C7.64 5.36 6 7.92 6 11v5l-2 2v1h16v-1l-2-2zm-2 1H8v-6c0-2.48 1.51-4.5 4-4.5s4 2.02 4 4.5v6z"/>
  </symbol>
  <symbol id="error" viewBox="0 0 24 24">
    <path fill="none" d="M0 0h24v24H0V0z"/>
    <circle style="fill:var(--error-color);" cx="12" cy="19" r="2"/>
    <path style="fill:var(--error-color);" d="M10 3h4v12h-4z"/>
  </symbol>
  <symbol id="update" viewBox="0 0 24 24">
    <path  style="fill:var(--success-color);" d="M17,1H7A2,2 0 0,0 5,3V21A2,2 0 0,0 7,23H17A2,2 0 0,0 19,21V3A2,2 0 0,0 17,1M17,19H7V5H17V19M16,13H13V8H11V13H8L12,17L16,13Z"/>
  </symbol>
</svg>
