<svg version="1.1" xmlns="http://www.w3.org/2000/svg" xml:space="preserve">
  <symbol id="premium" viewBox="0 0 240 240" style="fill-rule:evenodd;clip-rule:evenodd;stroke-linecap:round;stroke-linejoin:round;stroke-miterlimit:20;">
    <g>
        <g transform="matrix(3.5327,0,0,0.864384,-445.12,0.632979)">
            <path d="M172.757,46.428C172.841,43.932 173.364,42.073 173.98,42.073C174.597,42.073 175.119,43.932 175.203,46.428L175.619,58.707C175.632,59.096 175.676,59.458 175.744,59.736C175.812,60.015 175.901,60.194 175.996,60.248L179.001,61.947C179.611,62.292 180.066,64.426 180.066,66.946C180.066,69.466 179.611,71.6 179.001,71.945L175.996,73.644C175.901,73.698 175.812,73.877 175.744,74.156C175.676,74.434 175.632,74.795 175.619,75.185L175.203,87.464C175.119,89.96 174.597,91.819 173.98,91.819C173.364,91.819 172.841,89.96 172.757,87.464L172.341,75.185C172.328,74.795 172.284,74.434 172.216,74.156C172.148,73.877 172.06,73.698 171.964,73.644L168.96,71.945C168.349,71.6 167.894,69.466 167.894,66.946C167.894,64.426 168.349,62.292 168.96,61.947L171.964,60.248C172.06,60.194 172.148,60.015 172.216,59.736C172.284,59.458 172.328,59.096 172.341,58.707L172.757,46.428Z" style="fill:rgb(72,65,57);"/>
        </g>
        <g transform="matrix(0.170426,0.170426,-0.165364,0.165364,189.284,24.8243)">
            <rect x="32.457" y="153.092" width="16.596" height="17.104" style="fill:rgb(236,236,235);"/>
        </g>
    </g>
    <g id="Krone">
        <g transform="matrix(1,0,0,1,1.89158,0.263447)">
            <path d="M176.329,96.048L176.927,96.139L177.517,96.276L178.095,96.456L178.657,96.68L179.201,96.945L179.723,97.251L180.221,97.596L180.691,97.977L181.131,98.392L181.538,98.84L181.911,99.317L182.246,99.821L182.542,100.349L182.797,100.897L183.011,101.464L183.18,102.045L183.306,102.637L183.386,103.237L183.421,103.841L183.409,104.446L183.353,105.049L183.25,105.645L183.103,106.232L170.126,150.82L169.947,151.363L169.729,151.892L169.474,152.404L169.183,152.897L168.857,153.367L168.499,153.813L168.11,154.233L167.692,154.623L167.247,154.983L166.777,155.309L166.285,155.602L165.774,155.858L165.245,156.078L164.703,156.259L164.148,156.4L163.585,156.502L163.016,156.564L162.445,156.584L73.772,156.584L73.2,156.564L72.632,156.502L72.069,156.4L71.514,156.259L70.971,156.078L70.443,155.858L69.932,155.602L69.44,155.309L68.97,154.983L68.525,154.623L68.107,154.233L67.718,153.813L67.36,153.367L67.034,152.897L66.743,152.404L66.488,151.892L66.27,151.363L66.091,150.82L53.114,106.232L52.966,105.645L52.864,105.049L52.807,104.446L52.796,103.841L52.831,103.237L52.911,102.637L53.037,102.045L53.206,101.464L53.419,100.897L53.675,100.349L53.971,99.821L54.306,99.317L54.678,98.84L55.086,98.392L55.526,97.977L55.996,97.596L56.494,97.251L57.016,96.945L57.56,96.68L58.122,96.456L58.7,96.276L59.289,96.139L59.888,96.048L60.491,96.002L61.096,96.002L61.7,96.048L62.298,96.139L62.888,96.275L63.466,96.456L64.028,96.679L92.16,109.109L111.19,76.334L111.509,75.83L111.864,75.35L112.254,74.899L112.677,74.477L113.13,74.089L113.611,73.735L114.117,73.418L114.645,73.14L115.192,72.902L115.756,72.705L116.332,72.551L116.919,72.44L117.512,72.374L118.108,72.351L118.705,72.374L119.298,72.44L119.884,72.551L120.461,72.705L121.025,72.902L121.572,73.14L122.1,73.418L122.606,73.735L123.086,74.089L123.54,74.477L123.962,74.899L124.353,75.35L124.708,75.83L125.027,76.334L144.057,109.109L172.189,96.679L172.751,96.456L173.329,96.275L173.919,96.139L174.517,96.048L175.12,96.002L175.726,96.002L176.329,96.048ZM102.399,123.339L102.088,123.834L101.741,124.304L101.361,124.747L100.949,125.162L100.508,125.545L100.041,125.896L99.549,126.211L99.035,126.489L98.503,126.73L97.954,126.93L97.393,127.091L96.821,127.209L96.241,127.286L95.658,127.32L95.074,127.312L94.492,127.261L93.915,127.168L93.347,127.033L92.79,126.856L92.248,126.64L73.278,118.258L79.776,140.584L156.441,140.584L162.939,118.258L143.969,126.64L143.427,126.856L142.87,127.033L142.301,127.168L141.725,127.261L141.143,127.312L140.559,127.32L139.975,127.286L139.396,127.209L138.824,127.091L138.262,126.93L137.714,126.73L137.181,126.489L136.668,126.211L136.176,125.896L135.709,125.545L135.268,125.162L134.856,124.747L134.476,124.304L134.129,123.834L133.818,123.339L118.108,96.284L102.399,123.339Z" style="fill:rgb(72,65,57);"/>
            <path d="M73.772,148.584L60.795,103.997L95.481,119.322L118.108,80.351L140.736,119.322L175.422,103.997L162.445,148.584L73.772,148.584Z" style="fill:rgb(248,183,23);"/>
        </g>
        <g transform="matrix(0.630363,0,0,0.630682,43.277,46.094)">
            <ellipse cx="121.712" cy="171.24" rx="79.824" ry="23.183" style="fill:rgb(72,65,57);"/>
        </g>
        <g transform="matrix(0.653846,0,0,0.55,27.3275,41.6531)">
            <ellipse cx="141.734" cy="204.435" rx="61.647" ry="13.172" style="fill:rgb(241,113,32);"/>
        </g>
    </g>
    <g>
        <g transform="matrix(1.15925,0,0,0.949539,-9.46012,11.7739)">
            <path d="M53.88,157.156L57.607,169.456L67.682,174.007L57.607,178.558L53.88,190.857L50.152,178.558L40.078,174.007L50.152,169.456L53.88,157.156Z" style="fill:none;stroke:rgb(72,65,57);stroke-width:3.79px;"/>
            <path d="M53.88,157.156L57.607,169.456L67.682,174.007L57.607,178.558L53.88,190.857L50.152,178.558L40.078,174.007L50.152,169.456L53.88,157.156Z" style="fill:rgb(72,65,57);"/>
        </g>
        <g transform="matrix(0.255638,0.255638,-0.248045,0.248045,82.6765,126.486)">
            <rect x="32.457" y="153.092" width="16.596" height="17.104" style="fill:rgb(236,236,235);"/>
        </g>
    </g>
    <g transform="matrix(0.974267,0.974267,-0.835086,0.835086,126.227,-167.574)">
        <path d="M186.802,144.878L186.872,144.809L186.944,144.744L187.019,144.683L187.096,144.627L187.176,144.575L187.257,144.527L187.341,144.483L187.425,144.445L187.512,144.411L187.6,144.381L187.688,144.357L192.744,143.112L193.811,137.214L193.832,137.11L193.857,137.008L193.886,136.907L193.92,136.808L193.957,136.711L193.998,136.616L194.043,136.523L194.091,136.433L194.143,136.346L194.199,136.261L194.257,136.18L194.319,136.102L194.385,136.028L194.453,135.957L194.523,135.89L194.597,135.827L194.673,135.768L194.751,135.713L194.831,135.663L194.913,135.617L194.997,135.575L195.083,135.539L195.17,135.507L195.258,135.48L195.347,135.457L195.437,135.44L195.528,135.427L195.619,135.42L195.71,135.417L195.801,135.42L195.892,135.427L195.982,135.44L196.072,135.457L196.162,135.48L196.25,135.507L196.337,135.539L196.422,135.575L196.506,135.617L196.588,135.663L196.669,135.713L196.747,135.768L196.823,135.827L196.896,135.89L196.967,135.957L197.035,136.028L197.1,136.102L197.162,136.18L197.221,136.261L197.277,136.346L197.329,136.433L197.377,136.523L197.422,136.616L197.463,136.711L197.5,136.808L197.533,136.907L197.562,137.008L197.587,137.11L197.608,137.214L198.676,143.112L203.731,144.357L203.82,144.381L203.908,144.411L203.994,144.445L204.079,144.483L204.162,144.527L204.244,144.575L204.323,144.627L204.4,144.683L204.475,144.744L204.548,144.809L204.617,144.878L204.684,144.95L204.748,145.026L204.809,145.105L204.866,145.188L204.92,145.274L204.971,145.362L205.017,145.453L205.061,145.547L205.1,145.643L205.135,145.741L205.167,145.841L205.194,145.942L205.218,146.045L205.237,146.149L205.252,146.254L205.262,146.36L205.269,146.466L205.271,146.572L205.269,146.678L205.262,146.784L205.252,146.89L205.237,146.995L205.218,147.099L205.194,147.202L205.167,147.303L205.135,147.403L205.1,147.501L205.061,147.597L205.017,147.691L204.971,147.782L204.92,147.87L204.866,147.956L204.809,148.039L204.748,148.118L204.684,148.194L204.617,148.266L204.548,148.335L204.475,148.4L204.4,148.461L204.323,148.517L204.244,148.569L204.162,148.617L204.079,148.661L203.994,148.699L203.908,148.733L203.82,148.763L203.731,148.787L198.676,150.032L197.608,155.93L197.587,156.034L197.562,156.136L197.533,156.237L197.5,156.336L197.463,156.433L197.422,156.528L197.377,156.621L197.329,156.711L197.277,156.798L197.221,156.883L197.162,156.964L197.1,157.042L197.035,157.116L196.967,157.187L196.896,157.254L196.823,157.317L196.747,157.376L196.669,157.431L196.588,157.481L196.506,157.527L196.422,157.569L196.337,157.605L196.25,157.637L196.162,157.664L196.072,157.687L195.982,157.704L195.892,157.717L195.801,157.724L195.71,157.727L195.619,157.724L195.528,157.717L195.437,157.704L195.347,157.687L195.258,157.664L195.17,157.637L195.083,157.605L194.997,157.569L194.913,157.527L194.831,157.481L194.751,157.431L194.673,157.376L194.597,157.317L194.523,157.254L194.453,157.187L194.385,157.116L194.319,157.042L194.257,156.964L194.199,156.883L194.143,156.798L194.091,156.711L194.043,156.621L193.998,156.528L193.957,156.433L193.92,156.336L193.886,156.237L193.857,156.136L193.832,156.034L193.811,155.93L192.744,150.032L187.688,148.787L187.6,148.763L187.512,148.733L187.425,148.699L187.341,148.661L187.257,148.617L187.176,148.569L187.096,148.517L187.019,148.461L186.944,148.4L186.872,148.335L186.802,148.266L186.736,148.194L186.672,148.118L186.611,148.039L186.554,147.956L186.5,147.87L186.449,147.782L186.402,147.691L186.359,147.597L186.32,147.501L186.284,147.403L186.253,147.303L186.225,147.202L186.202,147.099L186.183,146.995L186.168,146.89L186.157,146.784L186.151,146.678L186.149,146.572L186.151,146.466L186.157,146.36L186.168,146.254L186.183,146.149L186.202,146.045L186.225,145.942L186.253,145.841L186.284,145.741L186.32,145.643L186.359,145.547L186.402,145.453L186.449,145.362L186.5,145.274L186.554,145.188L186.611,145.105L186.672,145.026L186.736,144.95L186.802,144.878ZM194.498,144.379L194.491,144.415L194.483,144.45L194.473,144.485L194.463,144.519L194.452,144.553L194.439,144.586L194.426,144.619L194.412,144.651L194.397,144.683L194.38,144.714L194.363,144.744L194.345,144.774L194.326,144.803L194.306,144.831L194.285,144.858L194.263,144.884L194.24,144.91L194.217,144.934L194.193,144.957L194.168,144.98L194.143,145.001L194.117,145.021L194.091,145.04L194.064,145.058L194.036,145.074L194.008,145.09L193.979,145.104L193.95,145.117L193.921,145.129L193.891,145.14L193.861,145.15L193.83,145.158L188.089,146.572L193.83,147.986L193.861,147.994L193.891,148.004L193.921,148.015L193.95,148.027L193.979,148.04L194.008,148.054L194.036,148.07L194.064,148.086L194.091,148.104L194.117,148.123L194.143,148.143L194.168,148.164L194.193,148.187L194.217,148.21L194.24,148.234L194.263,148.26L194.285,148.286L194.306,148.313L194.326,148.341L194.345,148.37L194.363,148.4L194.38,148.43L194.397,148.461L194.412,148.493L194.426,148.525L194.439,148.558L194.452,148.591L194.463,148.625L194.473,148.659L194.483,148.694L194.491,148.729L194.498,148.765L195.71,155.463L196.922,148.765L196.929,148.729L196.937,148.694L196.946,148.659L196.957,148.625L196.968,148.591L196.98,148.558L196.993,148.525L197.008,148.493L197.023,148.461L197.039,148.43L197.057,148.4L197.075,148.37L197.094,148.341L197.114,148.313L197.135,148.286L197.157,148.26L197.179,148.234L197.202,148.21L197.226,148.187L197.251,148.164L197.276,148.143L197.302,148.123L197.329,148.104L197.356,148.086L197.384,148.07L197.412,148.054L197.44,148.04L197.469,148.027L197.499,148.015L197.529,148.004L197.559,147.994L197.589,147.986L203.331,146.572L197.589,145.158L197.559,145.15L197.529,145.14L197.499,145.129L197.469,145.117L197.44,145.104L197.412,145.09L197.384,145.074L197.356,145.058L197.329,145.04L197.302,145.021L197.276,145.001L197.251,144.98L197.226,144.957L197.202,144.934L197.179,144.91L197.157,144.884L197.135,144.858L197.114,144.831L197.094,144.803L197.075,144.774L197.057,144.744L197.039,144.714L197.023,144.683L197.008,144.651L196.993,144.619L196.98,144.586L196.968,144.553L196.957,144.519L196.946,144.485L196.937,144.45L196.929,144.415L196.922,144.379L195.71,137.681L194.498,144.379Z" style="fill:rgb(72,65,57);"/>
        <path d="M195.71,137.681L196.922,144.379C196.957,144.57 197.038,144.746 197.157,144.884C197.275,145.022 197.425,145.117 197.589,145.158L203.331,146.572L197.589,147.986C197.425,148.027 197.275,148.122 197.157,148.26C197.038,148.398 196.957,148.574 196.922,148.765L195.71,155.463L194.498,148.765C194.463,148.574 194.382,148.398 194.263,148.26C194.145,148.122 193.994,148.027 193.83,147.986L188.089,146.572L193.83,145.158C193.994,145.117 194.145,145.022 194.263,144.884C194.382,144.746 194.463,144.57 194.498,144.379L195.71,137.681Z" style="fill:rgb(72,65,57);"/>
    </g>
  </symbol>
</svg>
